HIERARCHY
ROOT Hips
{
	OFFSET -0.001795 -0.223333 0.028219
	CHANNELS 6 Xposition Yposition Zposition Zrotation Yrotation Xrotation 
	JOINT LeftUpLeg
	{
		OFFSET 0.069520 -0.091406 -0.006815
		CHANNELS 3 Zrotation Yrotation Xrotation
		JOINT LeftLeg
		{
			OFFSET 0.034277 -0.375199 -0.004496
			CHANNELS 3 Zrotation Yrotation Xrotation
			JOINT LeftFoot
			{
				OFFSET -0.013596 -0.397961 -0.043693
				CHANNELS 3 Zrotation Yrotation Xrotation
				JOINT LeftToe
				{
					OFFSET 0.026358 -0.055791 0.119288
					CHANNELS 3 Zrotation Yrotation Xrotation
					End Site
					{
						OFFSET 0.000000 0.000000 0.000000
					}
				}
			}
		}
	}
	JOINT RightUpLeg
	{
		OFFSET -0.067670 -0.090522 -0.004320
		CHANNELS 3 Zrotation Yrotation Xrotation
		JOINT RightLeg
		{
			OFFSET -0.038290 -0.382569 -0.008850
			CHANNELS 3 Zrotation Yrotation Xrotation
			JOINT RightFoot
			{
				OFFSET 0.015774 -0.398415 -0.042312
				CHANNELS 3 Zrotation Yrotation Xrotation
				JOINT RightToe
				{
					OFFSET -0.025372 -0.048144 0.123348
					CHANNELS 3 Zrotation Yrotation Xrotation
					End Site
					{
						OFFSET 0.000000 0.000000 0.000000
					}
				}
			}
		}
	}
	JOINT Spine
	{
		OFFSET -0.002533 0.108963 -0.026696
		CHANNELS 3 Zrotation Yrotation Xrotation
		JOINT Spine1
		{
			OFFSET 0.005487 0.135180 0.001092
			CHANNELS 3 Zrotation Yrotation Xrotation
			JOINT Spine2
			{
				OFFSET 0.001457 0.052922 0.025425
				CHANNELS 3 Zrotation Yrotation Xrotation
				JOINT Neck
				{
					OFFSET -0.002778 0.213870 -0.042857
					CHANNELS 3 Zrotation Yrotation Xrotation
					JOINT Head
					{
						OFFSET 0.005152 0.064970 0.051349
						CHANNELS 3 Zrotation Yrotation Xrotation
						End Site
						{
							OFFSET 0.000000 0.000000 0.000000
						}
					}
				}
				JOINT LeftShoulder
				{
					OFFSET 0.078845 0.121749 -0.034090
					CHANNELS 3 Zrotation Yrotation Xrotation
					JOINT LeftArm
					{
						OFFSET 0.090977 0.030469 -0.008868
						CHANNELS 3 Zrotation Yrotation Xrotation
						JOINT LeftForeArm
						{
							OFFSET 0.259612 -0.012772 -0.027456
							CHANNELS 3 Zrotation Yrotation Xrotation
							JOINT LeftHand
							{
								OFFSET 0.249234 0.008986 -0.001171
								CHANNELS 3 Zrotation Yrotation Xrotation
								End Site
								{
									OFFSET 0.000000 0.000000 0.000000
								}
							}
						}
					}
				}
				JOINT RightShoulder
				{
					OFFSET -0.081759 0.118833 -0.038615
					CHANNELS 3 Zrotation Yrotation Xrotation
					JOINT RightArm
					{
						OFFSET -0.096012 0.032551 -0.009143
						CHANNELS 3 Zrotation Yrotation Xrotation
						JOINT RightForeArm
						{
							OFFSET -0.253742 -0.013329 -0.021401
							CHANNELS 3 Zrotation Yrotation Xrotation
							JOINT RightHand
							{
								OFFSET -0.255298 0.007772 -0.005559
								CHANNELS 3 Zrotation Yrotation Xrotation
								End Site
								{
									OFFSET 0.000000 0.000000 0.000000
								}
							}
						}
					}
				}
			}
		}
	}
}
MOTION
Frames: 9
Frame Time: 0.050000
0.000000 0.942469 0.000000 0.268798 -3.319029 7.633036 5.406493 -0.329189 -4.412287 -0.312077 0.200018 -5.179005 2.106844 7.170454 9.899974 0.000000 0.000000 0.000000 -4.242316 0.509920 -4.812888 -2.292987 -0.022075 -4.125054 -0.875168 -6.481385 10.194875 0.000000 0.000000 0.000000 5.551465 0.433903 -6.685838 -2.841252 1.282864 -4.624621 -4.542156 5.665622 5.622014 5.710926 -2.755122 -10.240263 0.000000 0.000000 0.000000 -14.864609 -0.411746 -2.073975 -57.068948 -7.545577 -3.272969 -7.683008 -14.260668 1.378546 0.000000 0.000000 0.000000 12.570348 -7.432703 -3.982224 65.485799 4.606864 -3.413289 8.860499 19.716853 2.215039 0.000000 0.000000 0.000000 
0.000197 0.941884 0.000135 0.284036 -3.588884 8.564769 5.179369 -0.331972 -4.176156 0.112400 0.221311 -6.477860 2.201713 7.333141 10.039441 0.000000 0.000000 0.000000 -4.169996 0.607485 -6.150528 -2.825955 0.029348 -3.781816 -0.440452 -5.911721 10.897102 0.000000 0.000000 0.000000 6.672480 0.519481 -7.363573 -3.464833 1.534858 -4.898680 -5.633918 5.979194 5.236904 5.508870 -2.518058 -10.612035 0.000000 0.000000 0.000000 -16.002978 0.146974 -2.611422 -55.451265 -7.744505 -2.983415 -8.497596 -13.790266 1.415886 0.000000 0.000000 0.000000 12.325168 -8.736821 -4.545455 66.782360 3.618070 -3.892624 9.070503 19.425596 2.219831 0.000000 0.000000 0.000000 
0.000301 0.941797 0.000063 0.746749 -3.187904 8.307711 4.639702 -0.357664 -4.556994 0.312429 0.145908 -4.864676 1.775760 6.319500 8.711728 0.000000 0.000000 0.000000 -4.465607 0.604066 -6.203907 -3.153324 0.067412 -3.558688 -1.177721 -7.271213 10.839178 0.000000 0.000000 0.000000 6.272225 0.463033 -6.928093 -3.313489 1.464868 -5.648163 -5.987153 5.325235 5.481257 4.757027 -2.148983 -9.935173 0.000000 0.000000 0.000000 -16.119951 -0.281582 -2.329161 -55.160579 -7.319545 -3.197135 -7.794943 -13.444357 1.312980 0.000000 0.000000 0.000000 13.472946 -7.791520 -4.272665 65.304758 3.239747 -4.195197 9.316463 19.923928 2.312449 0.000000 0.000000 0.000000 
0.000266 0.942017 0.000030 1.007047 -3.047945 8.740246 4.770923 -0.380180 -4.929947 -0.083632 0.185924 -5.219164 1.356737 5.704427 9.129078 0.000000 0.000000 0.000000 -4.691907 0.641625 -6.766157 -3.292919 0.064908 -3.737430 -1.257529 -7.652025 11.640004 0.000000 0.000000 0.000000 6.326053 0.451518 -6.906826 -3.677296 1.621454 -5.301777 -6.171794 4.648662 4.275147 4.469285 -2.091174 -9.143850 0.000000 0.000000 0.000000 -16.202555 0.238025 -2.529102 -55.248865 -7.907876 -2.806309 -6.814061 -12.849604 1.151210 0.000000 0.000000 0.000000 12.422673 -8.065449 -4.367908 65.619894 2.766843 -4.336464 10.785372 20.296678 2.570604 0.000000 0.000000 0.000000 
0.000125 0.942435 -0.000074 1.199769 -2.694127 8.576798 4.354603 -0.400858 -5.172344 0.118634 0.155467 -4.760951 1.230626 5.495238 9.031825 0.000000 0.000000 0.000000 -4.779484 0.632865 -6.718556 -3.610129 0.085845 -3.765136 -1.430898 -7.961242 11.730449 0.000000 0.000000 0.000000 6.086010 0.414103 -6.594463 -3.547859 1.573803 -5.202271 -6.380582 4.350214 4.274133 4.125323 -1.731218 -10.014360 0.000000 0.000000 0.000000 -15.980244 -0.077776 -2.329862 -55.234560 -8.199304 -2.674919 -7.029456 -12.624444 1.154811 0.000000 0.000000 0.000000 12.269827 -8.160639 -4.399797 65.435664 2.740468 -4.338624 11.036708 20.232128 2.601282 0.000000 0.000000 0.000000 
-0.000045 0.942842 -0.000059 1.356625 -2.439772 8.830053 4.373350 -0.415078 -5.362751 -0.096477 0.168760 -4.718290 1.292779 5.661780 9.155695 0.000000 0.000000 0.000000 -4.845614 0.638619 -6.815478 -3.938732 0.077473 -4.187982 -1.481203 -8.242003 12.511334 0.000000 0.000000 0.000000 5.874415 0.409444 -6.672859 -3.508917 1.556031 -5.435042 -6.493957 4.106661 4.312046 4.181259 -1.785895 -9.939812 0.000000 0.000000 0.000000 -16.236525 0.206356 -2.493109 -54.910366 -8.130512 -2.681210 -6.791318 -12.672148 1.135148 0.000000 0.000000 0.000000 12.050057 -8.229752 -4.415067 65.693026 2.624558 -4.412130 11.021724 19.999601 2.560170 0.000000 0.000000 0.000000 
-0.000171 0.943207 -0.000042 1.435228 -2.177548 8.797409 4.279537 -0.428178 -5.543880 -0.051977 0.160678 -4.578852 1.268225 5.802521 9.728488 0.000000 0.000000 0.000000 -4.815998 0.637225 -6.838184 -4.059335 0.090565 -4.133406 -1.328680 -7.911803 12.474952 0.000000 0.000000 0.000000 5.751038 0.386760 -6.486031 -3.523042 1.568259 -5.232839 -6.496891 3.688391 4.279838 4.163551 -1.713107 -10.506890 0.000000 0.000000 0.000000 -16.174855 0.382836 -2.515731 -54.995977 -7.946799 -2.771784 -6.866458 -12.830840 1.162425 0.000000 0.000000 0.000000 11.937351 -8.123762 -4.384761 65.859455 2.418980 -4.554854 10.970976 20.209028 2.571378 0.000000 0.000000 0.000000 
-0.000233 0.943561 -0.000058 1.462622 -1.961502 9.055744 4.192101 -0.457676 -5.982296 0.037479 0.141011 -4.203657 1.245380 5.768061 9.668450 0.000000 0.000000 0.000000 -4.861016 0.648142 -7.011179 -4.073007 0.087890 -4.190543 -1.413255 -8.036327 12.468569 0.000000 0.000000 0.000000 5.555807 0.376503 -6.499160 -3.413217 1.525142 -5.172775 -6.565061 3.623438 4.080164 4.197393 -1.776454 -10.161251 0.000000 0.000000 0.000000 -16.022210 0.511038 -2.575280 -54.737523 -7.699564 -2.851803 -7.038966 -13.176198 1.210921 0.000000 0.000000 0.000000 11.826229 -8.413228 -4.500939 66.035076 2.172411 -4.663492 11.120938 20.195490 2.594815 0.000000 0.000000 0.000000 
-0.000282 0.944066 -0.000143 1.523010 -1.868069 9.062686 4.051732 -0.476982 -6.264749 0.086220 0.124077 -3.829214 1.334828 5.932423 9.666019 0.000000 0.000000 0.000000 -4.961910 0.645816 -7.001688 -4.050760 0.074087 -4.364508 -1.228413 -7.695701 12.536969 0.000000 0.000000 0.000000 5.473010 0.347035 -6.209513 -3.400392 1.517169 -5.452239 -6.441452 3.535805 4.243388 4.242227 -1.769048 -10.478230 0.000000 0.000000 0.000000 -15.787676 0.780838 -2.650452 -54.829278 -7.498685 -2.973173 -7.295809 -13.234717 1.247176 0.000000 0.000000 0.000000 11.697975 -8.370174 -4.470396 65.936204 2.184829 -4.669419 11.074686 20.124623 2.575131 0.000000 0.000000 0.000000 
